<svg xmlns="http://www.w3.org/2000/svg" width="40" height="30.218" viewBox="0 0 40 30.218"><path d="M30.685-159.276a9.646,9.646,0,0,1,1.558,7.012,22.339,22.339,0,0,1-2.649,7.168,34.018,34.018,0,0,1-4.987,6.7q-2.961,3.117-5.454,5.3a1.167,1.167,0,0,1-1.714-.312q-.779-.935-.156-1.558,4.987-4.052,5.454-7.012a31.181,31.181,0,0,0,.467-4.207,10.6,10.6,0,0,1-6.545-3.428,7.5,7.5,0,0,1-1.247-6.545,9.5,9.5,0,0,1,3.428-5.3,7.933,7.933,0,0,1,6.545-1.4A8.337,8.337,0,0,1,30.685-159.276Zm22.751,0a9.646,9.646,0,0,1,1.558,7.012,22.339,22.339,0,0,1-2.649,7.168,34.018,34.018,0,0,1-4.987,6.7q-2.961,3.117-5.454,5.3a1.167,1.167,0,0,1-1.714-.312q-.779-.935-.156-1.558,4.987-4.052,5.454-7.012a31.182,31.182,0,0,0,.467-4.207,10.6,10.6,0,0,1-6.545-3.428,7.5,7.5,0,0,1-1.247-6.545,9.5,9.5,0,0,1,3.428-5.3,7.933,7.933,0,0,1,6.545-1.4A8.337,8.337,0,0,1,53.437-159.276Z" transform="translate(-15.133 163.065)" fill="#ae9099"/></svg>