<svg xmlns="http://www.w3.org/2000/svg" width="25.6" height="18" viewBox="0 0 25.6 18"><path d="M26.115,7.316a3.217,3.217,0,0,0-2.263-2.278c-2-.538-10-.538-10-.538s-8.005,0-10,.538A3.217,3.217,0,0,0,1.585,7.316a33.744,33.744,0,0,0-.535,6.2,33.744,33.744,0,0,0,.535,6.2,3.169,3.169,0,0,0,2.263,2.242c2,.538,10,.538,10,.538s8.005,0,10-.538a3.169,3.169,0,0,0,2.263-2.242,33.744,33.744,0,0,0,.535-6.2,33.744,33.744,0,0,0-.535-6.2ZM11.232,17.325V9.712l6.691,3.806-6.691,3.806Z" transform="translate(-1.05 -4.5)" fill="#bbc7d6"/></svg>