<svg width="105" height="95" viewBox="0 0 105 95" fill="none" xmlns="http://www.w3.org/2000/svg">
<path d="M103.441 48.8083V50.6489C103.441 50.75 103.39 50.8258 103.289 50.8763C102.979 51.0423 102.593 51.1831 102.131 51.2986C101.676 51.4141 101.193 51.4718 100.68 51.4718C100.175 51.4718 99.6912 51.3744 99.2292 51.1795C98.7673 50.9846 98.3991 50.7103 98.1249 50.3566C97.5979 49.6637 97.3345 48.7614 97.3345 47.6498C97.3345 46.9713 97.4355 46.3758 97.6376 45.8633C97.847 45.3436 98.1212 44.9394 98.4605 44.6507C99.1246 44.0877 99.8861 43.8062 100.745 43.8062C101.611 43.8062 102.355 43.9974 102.975 44.38C103.077 44.4377 103.127 44.5171 103.127 44.6182V45.9716C103.127 46.0799 103.073 46.134 102.965 46.134H102.347C102.239 46.134 102.189 46.0799 102.196 45.9716L102.228 45.2462C101.774 44.9214 101.279 44.7589 100.745 44.7589C100.218 44.7589 99.7922 44.8925 99.4674 45.1596C99.1498 45.4194 98.9297 45.7442 98.807 46.134C98.6915 46.5166 98.6337 46.9821 98.6337 47.5307C98.6337 48.0721 98.6987 48.5593 98.8286 48.9924C98.9658 49.4255 99.2076 49.7864 99.554 50.0751C99.9077 50.3638 100.362 50.5082 100.918 50.5082C101.481 50.5082 101.95 50.3819 102.326 50.1292V48.8083H101.633C101.525 48.8083 101.47 48.7542 101.47 48.6459V48.1046C101.47 47.9963 101.525 47.9421 101.633 47.9421H104.015C104.123 47.9421 104.177 47.9963 104.177 48.1046V48.6459C104.177 48.7542 104.123 48.8083 104.015 48.8083H103.441Z" fill="white"/>
<path d="M95.2648 44.8672V51.1795C95.2648 51.2878 95.2107 51.3419 95.1024 51.3419H94.312C94.2037 51.3419 94.1207 51.2986 94.063 51.212L90.3926 45.7876V50.4866H91.2912C91.3995 50.4866 91.4536 50.5407 91.4536 50.649V51.1795C91.4536 51.2878 91.3995 51.3419 91.2912 51.3419H88.8768C88.7685 51.3419 88.7144 51.2878 88.7144 51.1795V50.649C88.7144 50.5407 88.7685 50.4866 88.8768 50.4866H89.4506V44.8672H88.8768C88.7685 44.8672 88.7144 44.8131 88.7144 44.7048V44.1526C88.7144 44.0444 88.7685 43.9902 88.8768 43.9902H90.4684C90.5694 43.9902 90.6524 44.0372 90.7174 44.131L94.3228 49.6096V44.8672H93.749C93.6407 44.8672 93.5866 44.8131 93.5866 44.7048V44.1526C93.5866 44.0444 93.6407 43.9902 93.749 43.9902H95.8387C95.9469 43.9902 96.0011 44.0444 96.0011 44.1526V44.7048C96.0011 44.8131 95.9469 44.8672 95.8387 44.8672H95.2648Z" fill="white"/>
<path d="M86.569 44.8672V50.4866H87.1429C87.2511 50.4866 87.3053 50.5407 87.3053 50.649V51.1795C87.3053 51.2878 87.2511 51.3419 87.1429 51.3419H84.7825C84.6743 51.3419 84.6201 51.2878 84.6201 51.1795V50.649C84.6201 50.5407 84.6743 50.4866 84.7825 50.4866H85.3564V44.8672H84.7825C84.6743 44.8672 84.6201 44.8131 84.6201 44.7048V44.1526C84.6201 44.0444 84.6743 43.9902 84.7825 43.9902H87.1429C87.2511 43.9902 87.3053 44.0444 87.3053 44.1526V44.7048C87.3053 44.8131 87.2511 44.8672 87.1429 44.8672H86.569Z" fill="white"/>
<path d="M78.8376 44.8672V47.1843H79.4006L81.4144 44.8672H80.8406C80.7323 44.8672 80.6782 44.8131 80.6782 44.7048V44.1526C80.6782 44.0444 80.7323 43.9902 80.8406 43.9902H83.0493C83.1576 43.9902 83.2118 44.0444 83.2118 44.1526V44.7265C83.2118 44.8348 83.1576 44.8889 83.0493 44.8889H82.4972L80.3534 47.39L82.508 50.4866H83.2118C83.32 50.4866 83.3742 50.5407 83.3742 50.649V51.1795C83.3742 51.2878 83.32 51.3419 83.2118 51.3419H81.8259C81.7176 51.3419 81.631 51.2986 81.566 51.212L79.3898 48.0721H78.8376V50.4866H79.4114C79.5197 50.4866 79.5738 50.5407 79.5738 50.649V51.1795C79.5738 51.2878 79.5197 51.3419 79.4114 51.3419H77.0511C76.9428 51.3419 76.8887 51.2878 76.8887 51.1795V50.649C76.8887 50.5407 76.9428 50.4866 77.0511 50.4866H77.6249V44.8672H77.0511C76.9428 44.8672 76.8887 44.8131 76.8887 44.7048V44.1526C76.8887 44.0444 76.9428 43.9902 77.0511 43.9902H79.4114C79.5197 43.9902 79.5738 44.0444 79.5738 44.1526V44.7048C79.5738 44.8131 79.5197 44.8672 79.4114 44.8672H78.8376Z" fill="white"/>
<path d="M70.693 49.0249L70.1949 50.4866H70.8446C70.9528 50.4866 71.007 50.5407 71.007 50.649V51.1795C71.007 51.2878 70.9528 51.3419 70.8446 51.3419H68.5384C68.4301 51.3419 68.376 51.2878 68.376 51.1795V50.649C68.376 50.5407 68.4301 50.4866 68.5384 50.4866H69.1772L71.3426 44.1418C71.3859 44.0408 71.4581 43.9902 71.5592 43.9902H72.6094C72.7105 43.9902 72.7826 44.0408 72.826 44.1418L75.0131 50.4866H75.7493C75.8576 50.4866 75.9117 50.5407 75.9117 50.649V51.1795C75.9117 51.2878 75.8576 51.3419 75.7493 51.3419H73.0317C72.9234 51.3419 72.8693 51.2878 72.8693 51.1795V50.649C72.8693 50.5407 72.9234 50.4866 73.0317 50.4866H73.703L73.1941 49.0249H70.693ZM71.9381 45.0296L70.9095 48.2128H72.9559L71.9381 45.0296Z" fill="white"/>
<path d="M63.1445 51.3419H62.4299C62.3216 51.3419 62.2458 51.2914 62.2025 51.1903L60.102 45.8525V50.4866H60.7842C60.8924 50.4866 60.9466 50.5407 60.9466 50.649V51.1795C60.9466 51.2878 60.8924 51.3419 60.7842 51.3419H58.5862C58.478 51.3419 58.4238 51.2878 58.4238 51.1795V50.649C58.4238 50.5407 58.478 50.4866 58.5862 50.4866H59.1601V44.8672H58.5862C58.478 44.8672 58.4238 44.8131 58.4238 44.7048V44.1526C58.4238 44.0444 58.478 43.9902 58.5862 43.9902H60.481C60.5965 43.9902 60.6687 44.0408 60.6975 44.1418L62.9279 49.956L65.2125 44.1418C65.2414 44.0408 65.3135 43.9902 65.429 43.9902H67.2372C67.3454 43.9902 67.3996 44.0444 67.3996 44.1526V44.7048C67.3996 44.8131 67.3454 44.8672 67.2372 44.8672H66.6633V50.4866H67.2372C67.3454 50.4866 67.3996 50.5407 67.3996 50.649V51.1795C67.3996 51.2878 67.3454 51.3419 67.2372 51.3419H64.8552C64.7469 51.3419 64.6928 51.2878 64.6928 51.1795V50.649C64.6928 50.5407 64.7469 50.4866 64.8552 50.4866H65.5048V45.8633L63.3719 51.1903C63.3285 51.2914 63.2528 51.3419 63.1445 51.3419Z" fill="white"/>
<path d="M51.7848 44.8672V47.0976H55.0655V44.8672H54.4916C54.3834 44.8672 54.3292 44.8131 54.3292 44.7048V44.1526C54.3292 44.0444 54.3834 43.9902 54.4916 43.9902H56.852C56.9602 43.9902 57.0144 44.0444 57.0144 44.1526V44.7048C57.0144 44.8131 56.9602 44.8672 56.852 44.8672H56.2781V50.4866H56.852C56.9602 50.4866 57.0144 50.5407 57.0144 50.649V51.1795C57.0144 51.2878 56.9602 51.3419 56.852 51.3419H54.4916C54.3834 51.3419 54.3292 51.2878 54.3292 51.1795V50.649C54.3292 50.5407 54.3834 50.4866 54.4916 50.4866H55.0655V48.0288H51.7848V50.4866H52.3587C52.4669 50.4866 52.5211 50.5407 52.5211 50.649V51.1795C52.5211 51.2878 52.4669 51.3419 52.3587 51.3419H49.9983C49.8901 51.3419 49.8359 51.2878 49.8359 51.1795V50.649C49.8359 50.5407 49.8901 50.4866 49.9983 50.4866H50.5722V44.8672H49.9983C49.8901 44.8672 49.8359 44.8131 49.8359 44.7048V44.1526C49.8359 44.0444 49.8901 43.9902 49.9983 43.9902H52.3587C52.4669 43.9902 52.5211 44.0444 52.5211 44.1526V44.7048C52.5211 44.8131 52.4669 44.8672 52.3587 44.8672H51.7848Z" fill="white"/>
<path d="M42.5176 47.7039C42.5176 47.011 42.6186 46.4011 42.8207 45.8741C43.0301 45.3472 43.3044 44.9394 43.6436 44.6507C44.3077 44.0877 45.0584 43.8062 45.8957 43.8062C46.7402 43.8062 47.4981 43.9902 48.1694 44.3583C48.2632 44.4089 48.3101 44.481 48.3101 44.5749V45.9716C48.3101 46.0799 48.256 46.134 48.1477 46.134H47.5414C47.4331 46.134 47.3826 46.0799 47.3898 45.9716L47.4223 45.2137C46.9748 44.9105 46.4659 44.7589 45.8957 44.7589C44.5098 44.7589 43.8168 45.6829 43.8168 47.5307C43.8168 48.1082 43.8854 48.6134 44.0226 49.0465C44.1597 49.4724 44.4015 49.8261 44.748 50.1076C45.0945 50.3891 45.5564 50.5298 46.1339 50.5298C46.7113 50.5298 47.1444 50.4144 47.4331 50.1834L47.3898 49.4255C47.3826 49.3172 47.4331 49.2631 47.5414 49.2631H48.1585C48.2668 49.2631 48.321 49.3172 48.321 49.4255V50.8005C48.321 50.9016 48.2849 50.9702 48.2127 51.0062C47.5775 51.3166 46.8521 51.4718 46.0364 51.4718C44.8526 51.4718 43.9684 51.1362 43.3838 50.4649C42.8063 49.7936 42.5176 48.8733 42.5176 47.7039Z" fill="white"/>
<path d="M40.0246 51.3419H37.0147C36.9064 51.3419 36.8523 51.2878 36.8523 51.1795V50.649C36.8523 50.5407 36.9064 50.4866 37.0147 50.4866H37.9025V44.8564H36.4408L36.495 45.7009C36.5022 45.8092 36.4516 45.8633 36.3434 45.8633H35.6829C35.5746 45.8633 35.5205 45.8092 35.5205 45.7009V44.1526C35.5205 44.0444 35.5746 43.9902 35.6829 43.9902H41.3455C41.4538 43.9902 41.508 44.0444 41.508 44.1526V45.7009C41.508 45.8092 41.4538 45.8633 41.3455 45.8633H40.6851C40.5768 45.8633 40.5263 45.8092 40.5335 45.7009L40.5876 44.8564H39.126V50.4866H40.0246C40.1329 50.4866 40.187 50.5407 40.187 50.649V51.1795C40.187 51.2878 40.1329 51.3419 40.0246 51.3419Z" fill="white"/>
<path d="M30.3024 49.0249L29.8043 50.4866H30.454C30.5622 50.4866 30.6164 50.5407 30.6164 50.649V51.1795C30.6164 51.2878 30.5622 51.3419 30.454 51.3419H28.1478C28.0395 51.3419 27.9854 51.2878 27.9854 51.1795V50.649C27.9854 50.5407 28.0395 50.4866 28.1478 50.4866H28.7866L30.952 44.1418C30.9953 44.0408 31.0675 43.9902 31.1685 43.9902H32.2188C32.3198 43.9902 32.392 44.0408 32.4353 44.1418L34.6224 50.4866H35.3587C35.467 50.4866 35.5211 50.5407 35.5211 50.649V51.1795C35.5211 51.2878 35.467 51.3419 35.3587 51.3419H32.6411C32.5328 51.3419 32.4786 51.2878 32.4786 51.1795V50.649C32.4786 50.5407 32.5328 50.4866 32.6411 50.4866H33.3123L32.8035 49.0249H30.3024ZM31.5475 45.0296L30.5189 48.2128H32.5653L31.5475 45.0296Z" fill="white"/>
<path d="M22.7534 51.3419H22.0388C21.9305 51.3419 21.8547 51.2914 21.8114 51.1903L19.7109 45.8525V50.4866H20.393C20.5013 50.4866 20.5555 50.5407 20.5555 50.649V51.1795C20.5555 51.2878 20.5013 51.3419 20.393 51.3419H18.1951C18.0869 51.3419 18.0327 51.2878 18.0327 51.1795V50.649C18.0327 50.5407 18.0869 50.4866 18.1951 50.4866H18.769V44.8672H18.1951C18.0869 44.8672 18.0327 44.8131 18.0327 44.7048V44.1526C18.0327 44.0444 18.0869 43.9902 18.1951 43.9902H20.0899C20.2054 43.9902 20.2776 44.0408 20.3064 44.1418L22.5368 49.956L24.8214 44.1418C24.8502 44.0408 24.9224 43.9902 25.0379 43.9902H26.8461C26.9543 43.9902 27.0085 44.0444 27.0085 44.1526V44.7048C27.0085 44.8131 26.9543 44.8672 26.8461 44.8672H26.2722V50.4866H26.8461C26.9543 50.4866 27.0085 50.5407 27.0085 50.649V51.1795C27.0085 51.2878 26.9543 51.3419 26.8461 51.3419H24.4641C24.3558 51.3419 24.3017 51.2878 24.3017 51.1795V50.649C24.3017 50.5407 24.3558 50.4866 24.4641 50.4866H25.1137V45.8633L22.9807 51.1903C22.9374 51.2914 22.8616 51.3419 22.7534 51.3419Z" fill="white"/>
<path d="M8.00586 47.7039C8.00586 47.011 8.10691 46.4011 8.30902 45.8741C8.51835 45.3472 8.79264 44.9394 9.13189 44.6507C9.79596 44.0877 10.5466 43.8062 11.3839 43.8062C12.2285 43.8062 12.9864 43.9902 13.6577 44.3583C13.7515 44.4089 13.7984 44.481 13.7984 44.5749V45.9716C13.7984 46.0799 13.7443 46.134 13.636 46.134H13.0297C12.9214 46.134 12.8709 46.0799 12.8781 45.9716L12.9106 45.2137C12.4631 44.9105 11.9542 44.7589 11.3839 44.7589C9.99807 44.7589 9.30512 45.6829 9.30512 47.5307C9.30512 48.1082 9.3737 48.6134 9.51084 49.0465C9.64799 49.4724 9.88979 49.8261 10.2363 50.1076C10.5827 50.3891 11.0447 50.5298 11.6221 50.5298C12.1996 50.5298 12.6327 50.4144 12.9214 50.1834L12.8781 49.4255C12.8709 49.3172 12.9214 49.2631 13.0297 49.2631H13.6468C13.7551 49.2631 13.8092 49.3172 13.8092 49.4255V50.8005C13.8092 50.9016 13.7732 50.9702 13.701 51.0062C13.0658 51.3166 12.3404 51.4718 11.5247 51.4718C10.3409 51.4718 9.4567 51.1362 8.87204 50.4649C8.29458 49.7936 8.00586 48.8733 8.00586 47.7039Z" fill="white"/>
<path d="M0.245904 43.9901C1.16983 43.9468 1.85555 43.9252 2.30307 43.9252C2.7506 43.9252 3.08263 43.936 3.29918 43.9577C3.52294 43.9721 3.77557 44.0082 4.05708 44.0659C4.33859 44.1237 4.58761 44.2031 4.80416 44.3041C5.02792 44.398 5.25168 44.5351 5.47545 44.7156C5.69921 44.896 5.88688 45.1053 6.03846 45.3435C6.37049 45.8921 6.53651 46.5995 6.53651 47.4657C6.53651 48.7722 6.1756 49.7466 5.45379 50.389C4.73198 51.0242 3.7467 51.3418 2.49796 51.3418H0.245904C0.137632 51.3418 0.0834961 51.2877 0.0834961 51.1794V50.6489C0.0834961 50.5406 0.137632 50.4865 0.245904 50.4865H0.808919V44.8671H0.245904C0.137632 44.8671 0.0834961 44.813 0.0834961 44.7047V44.1525C0.0834961 44.0443 0.137632 43.9901 0.245904 43.9901ZM2.73616 50.4973C3.53016 50.4973 4.1437 50.2374 4.57679 49.7177C5.01709 49.198 5.23725 48.487 5.23725 47.5848C5.23725 46.6825 5.03153 45.9968 4.6201 45.5276C4.21588 45.0584 3.58068 44.8238 2.71451 44.8238H2.02157V50.4973H2.73616Z" fill="white"/>
<path d="M45.9288 38.0326H13.4312V28.5875H19.5735V26.9789H20.9547V28.539C21.6354 28.539 22.2304 28.5539 22.8241 28.5266C22.9396 28.5217 23.1433 28.349 23.1408 28.2583C23.1284 27.7602 23.4551 27.7478 23.8004 27.7453C24.2525 27.7416 24.7047 27.7453 25.0549 27.7453C25.9766 26.2933 25.4648 24.7779 25.6387 23.2886C25.7853 23.2389 25.9518 23.1818 26.112 23.1259C26.1319 23.0811 26.1617 23.0451 26.1629 23.0079C26.1741 22.429 26.2213 21.8465 26.1753 21.2726C26.1418 20.859 26.1716 20.5745 26.666 20.577C26.6759 18.9585 27.2709 17.7239 28.7763 16.9985C28.677 16.6084 28.6571 16.2482 29.2235 16.2271C29.2844 16.2246 29.3726 16.006 29.3862 15.8806C29.4123 15.6346 29.3887 15.385 29.3974 15.1365C29.4148 14.6061 29.1925 14.0584 29.667 13.5677C29.8309 13.3976 29.7576 12.9963 29.7874 12.7007C29.8322 12.2685 29.8719 11.835 29.9141 11.4027C30.0247 11.3977 30.134 11.394 30.2445 11.389C30.3625 12.9665 31.0805 14.4434 30.7861 16.088C31.047 16.1836 31.2544 16.2582 31.4618 16.3339C31.4171 16.3786 31.3736 16.4234 31.3289 16.4681C31.55 16.7277 31.7388 17.027 31.9997 17.2382C32.9884 18.0406 33.5163 19.0654 33.6293 20.3274C33.6467 20.5224 33.8281 20.6975 33.9038 20.8925C33.9585 21.0341 33.9883 21.1944 33.9895 21.3471C33.9995 21.967 33.9933 22.5855 33.9933 23.2252C34.1982 23.2799 34.3734 23.3258 34.5659 23.3768C34.5783 23.4501 34.6019 23.5296 34.6019 23.6091C34.6007 24.3543 34.5559 25.1008 34.6031 25.8424C34.633 26.2982 34.2752 26.8671 34.9224 27.21C34.9981 27.2497 34.9323 27.5565 34.9323 27.7987H36.6763C36.7123 28.0496 36.7408 28.2471 36.7769 28.5005H38.9779C39.0015 28.0223 39.0251 27.5217 39.0512 27H40.425V28.5192H45.9288V38.0326Z" fill="white"/>
<path d="M71.9709 32.4188H72.8081V27.2789H76.2314V38.0257H50.2822V30.1867H54.2707V27.2627H57.6319V32.4262H58.4219V22.2545C59.0181 22.2545 59.5907 22.2545 60.1621 22.2545C61.5694 22.252 62.9767 22.2731 64.3841 22.2346C64.912 22.2209 65.0536 22.401 65.0486 22.9029C65.0262 25.6964 65.0312 28.4912 65.0275 31.2847C65.0275 31.5269 65.0275 31.7691 65.0275 32.0325H65.8771V25.0803H71.9709V32.42V32.4188Z" fill="white"/>
<path d="M50.2867 38.0599H45.1927C45.1927 37.8127 45.1865 37.5929 45.1927 37.373C45.5318 26.1653 45.8709 14.9577 46.2224 3.74997C46.2348 3.36864 46.3255 2.96495 46.4808 2.61715C46.8584 1.77748 47.2969 0.96513 47.7813 0C48.4595 1.50421 49.3712 2.68547 49.4122 4.33874C49.6557 14.1205 49.9898 23.9009 50.2792 33.6827C50.3214 35.1235 50.2854 36.5656 50.2854 38.0599H50.2867Z" fill="white"/>
<path d="M89.0702 26.7057H92.3282V30.0073H95.5019C95.5019 30.8718 95.5019 31.668 95.5019 32.4642C95.5019 32.6915 95.4969 32.92 95.5019 33.1473C95.5267 33.9895 95.323 33.9199 96.3825 34.0715V27.9242H104.366V37.9345C104.203 37.9544 104.064 37.9854 103.926 37.9854C99.2282 37.9879 94.5305 37.9767 89.8341 38.0003C89.2105 38.0028 89.0391 37.8326 89.0441 37.1979C89.0714 33.8665 89.0441 30.5352 89.0366 27.2038C89.0366 27.0609 89.054 26.9181 89.0689 26.7057H89.0702Z" fill="white"/>
<path d="M82.8596 21.2416H89.5311V38.0053H79.3481V28.277H81.9802C81.9802 28.6683 81.9802 29.0508 81.9802 29.4334C81.9839 30.5091 81.9827 31.5848 81.9926 32.6604C82.0001 33.438 82.0212 33.4504 82.8596 33.325V21.2404V21.2416Z" fill="white"/>
<path d="M8.91729 29.2632H11.2997V38.0698H0.349121V25.4635H8.07265V32.002H8.91853V29.2632H8.91729Z" fill="white"/>
<path d="M79.8941 38.0487H75.9963C75.9963 37.8326 75.9914 37.6164 75.9963 37.3991C76.1702 30.078 76.3392 22.7557 76.523 15.4346C76.5541 14.2136 77.4372 13.3553 77.9316 12.297C78.5166 13.4646 79.3265 14.4595 79.355 15.8731C79.5016 23.1743 79.7227 30.4742 79.9165 37.7754C79.9177 37.8363 79.9078 37.8984 79.8954 38.0487H79.8941Z" fill="white"/>
<path d="M10.6587 24.2214H13.4584V38.0103H10.6587V24.2214Z" fill="white"/>
<path d="M45.5797 56.9674H13.082V66.4125H19.2243V68.0211H20.6056V66.461C21.2863 66.461 21.8812 66.4461 22.475 66.4734C22.5905 66.4783 22.7942 66.651 22.7917 66.7417C22.7793 67.2398 23.106 67.2522 23.4513 67.2547C23.9034 67.2584 24.3555 67.2547 24.7058 67.2547C25.6275 68.7067 25.1157 70.2221 25.2896 71.7114C25.4362 71.7611 25.6026 71.8182 25.7629 71.8741C25.7827 71.9189 25.8126 71.9549 25.8138 71.9921C25.825 72.571 25.8722 73.1535 25.8262 73.7274C25.7927 74.141 25.8225 74.4255 26.3169 74.423C26.3268 76.0415 26.9218 77.2761 28.4272 78.0015C28.3279 78.3916 28.308 78.7518 28.8744 78.7729C28.9353 78.7754 29.0234 78.994 29.0371 79.1194C29.0632 79.3654 29.0396 79.615 29.0483 79.8635C29.0657 80.3939 28.8433 80.9416 29.3178 81.4323C29.4818 81.6024 29.4085 82.0037 29.4383 82.2993C29.483 82.7315 29.5228 83.165 29.565 83.5973C29.6756 83.6023 29.7849 83.606 29.8954 83.611C30.0134 82.0335 30.7314 80.5566 30.437 78.912C30.6978 78.8164 30.9053 78.7418 31.1127 78.6661C31.068 78.6214 31.0245 78.5766 30.9798 78.5319C31.2009 78.2723 31.3897 77.973 31.6505 77.7618C32.6393 76.9594 33.1672 75.9346 33.2802 74.6726C33.2976 74.4776 33.4789 74.3025 33.5547 74.1075C33.6094 73.9659 33.6392 73.8056 33.6404 73.6529C33.6504 73.033 33.6441 72.4145 33.6441 71.7748C33.8491 71.7201 34.0242 71.6742 34.2168 71.6232C34.2292 71.5499 34.2528 71.4704 34.2528 71.3909C34.2515 70.6457 34.2068 69.8992 34.254 69.1576C34.2838 68.7018 33.9261 68.1329 34.5733 67.79C34.649 67.7503 34.5832 67.4435 34.5832 67.2013H36.3271C36.3632 66.9504 36.3917 66.7529 36.4277 66.4995H38.6288C38.6524 66.9777 38.676 67.4783 38.7021 68H40.0759V66.4808H45.5797V56.9674Z" fill="white"/>
<path d="M71.6218 62.5812H72.459V67.7211H75.8823V56.9743H49.9331V64.8133H53.9216V67.7373H57.2827V62.5738H58.0727V72.7455C58.669 72.7455 59.2416 72.7455 59.813 72.7455C61.2203 72.748 62.6276 72.7269 64.0349 72.7654C64.5628 72.7791 64.7044 72.599 64.6995 72.0971C64.6771 69.3036 64.6821 66.5088 64.6784 63.7153C64.6784 63.4731 64.6784 63.2309 64.6784 62.9675H65.528V69.9197H71.6218V62.58V62.5812Z" fill="white"/>
<path d="M49.9375 56.9401H44.8436C44.8436 57.1873 44.8374 57.4071 44.8436 57.627C45.1827 68.8347 45.5218 80.0423 45.8733 91.25C45.8857 91.6314 45.9764 92.0351 46.1317 92.3828C46.5093 93.2225 46.9477 94.0349 47.4322 95C48.1104 93.4958 49.0221 92.3145 49.0631 90.6613C49.3065 80.8795 49.6407 71.0991 49.9301 61.3173C49.9723 59.8765 49.9363 58.4344 49.9363 56.9401H49.9375Z" fill="white"/>
<path d="M88.721 68.2943H91.9791V64.9927H95.1528C95.1528 64.1282 95.1528 63.332 95.1528 62.5358C95.1528 62.3085 95.1478 62.08 95.1528 61.8527C95.1776 61.0105 94.9739 61.0801 96.0334 60.9285V67.0758H104.017V57.0655C103.854 57.0456 103.715 57.0146 103.577 57.0146C98.8791 57.0121 94.1814 57.0233 89.4849 56.9997C88.8614 56.9972 88.69 57.1674 88.695 57.8021C88.7223 61.1335 88.695 64.4648 88.6875 67.7962C88.6875 67.9391 88.7049 68.0819 88.7198 68.2943H88.721Z" fill="white"/>
<path d="M82.5105 73.7584H89.182V56.9947H78.999V66.723H81.6311C81.6311 66.3317 81.6311 65.9492 81.6311 65.5666C81.6348 64.4909 81.6336 63.4152 81.6435 62.3396C81.651 61.562 81.6721 61.5496 82.5105 61.675V73.7596V73.7584Z" fill="white"/>
<path d="M8.56817 65.7368H10.9506V56.9302H0V69.5365H7.72353V62.998H8.56941V65.7368H8.56817Z" fill="white"/>
<path d="M79.5455 56.9513H75.6477C75.6477 57.1674 75.6427 57.3836 75.6477 57.6009C75.8216 64.922 75.9905 72.2443 76.1744 79.5654C76.2054 80.7864 77.0886 81.6447 77.5829 82.703C78.168 81.5354 78.9778 80.5405 79.0064 79.1269C79.153 71.8257 79.3741 64.5258 79.5679 57.2246C79.5691 57.1637 79.5592 57.1016 79.5467 56.9513H79.5455Z" fill="white"/>
<path d="M10.3096 70.7786H13.1093V56.9897H10.3096V70.7786Z" fill="white"/>
</svg>
