<svg xmlns="http://www.w3.org/2000/svg" width="724.717" height="397.901" viewBox="0 0 724.717 397.901"><g transform="translate(-162.096 -50.986)"><path d="M-2930.809-1101.593a76.224,76.224,0,0,1-18.768-8.448,77.279,77.279,0,0,1-15.825-13.153,82.681,82.681,0,0,1-12.137-17.056,89.849,89.849,0,0,1-7.806-20.1,89.075,89.075,0,0,1-2.78-22.4,92.5,92.5,0,0,1,1.237-15.257q-.858.262-1.727.508a81.619,81.619,0,0,1-22.307,3.019H-3076v-30.638h13.53V-1333.25H-3076V-1364h65.077a81.619,81.619,0,0,1,22.307,3.02,83.007,83.007,0,0,1,19.9,8.5,82.871,82.871,0,0,1,16.772,13.139,82.517,82.517,0,0,1,12.915,17.051,84.9,84.9,0,0,1,8.274,20.239,86.88,86.88,0,0,1,2.907,22.586,88.877,88.877,0,0,1-1.31,15.359,74.872,74.872,0,0,1,19.41-2.483q13.153,0,22.135,3.262t19.783,12.885h23.953v36.143h-33.042q-5.987-8.554-10.8-12.136a31.347,31.347,0,0,0-10.373-5.133,43.178,43.178,0,0,0-11.656-1.551,35.566,35.566,0,0,0-16.682,4.01,42.11,42.11,0,0,0-13.314,10.907,52.91,52.91,0,0,0-8.822,16.04,58.2,58.2,0,0,0-3.208,19.408,59.421,59.421,0,0,0,3.155,19.516,51.966,51.966,0,0,0,8.715,15.986,41.819,41.819,0,0,0,13.26,10.854,36.015,36.015,0,0,0,16.9,4.01,33.841,33.841,0,0,0,11.976-2.085,40.091,40.091,0,0,0,10.105-5.507,41.617,41.617,0,0,0,7.967-7.86,38.634,38.634,0,0,0,5.347-9.25l34.432,9.625a68.4,68.4,0,0,1-9.731,19.409,67.61,67.61,0,0,1-15.452,15.452,74.6,74.6,0,0,1-20.316,10.265,76.814,76.814,0,0,1-24.328,3.742A73.424,73.424,0,0,1-2930.809-1101.593Zm-94.539-123.531h14.2a36.136,36.136,0,0,0,17.108-4.249,44.683,44.683,0,0,0,13.977-11.573,57.111,57.111,0,0,0,9.393-17.22,64,64,0,0,0,3.466-21.3,63.172,63.172,0,0,0-3.466-21.133,56.5,56.5,0,0,0-9.393-17.108,43.635,43.635,0,0,0-13.977-11.4,36.909,36.909,0,0,0-17.108-4.137h-14.2Z" transform="translate(3726.096 1415.486)" fill="#91a0b4" stroke="rgba(0,0,0,0)" stroke-miterlimit="10" stroke-width="1"/><g transform="translate(0 100)" opacity="0.2"><path d="M-72.9-169.514H-7.827a81.606,81.606,0,0,1,22.307,3.019,83,83,0,0,1,19.9,8.5,82.854,82.854,0,0,1,16.772,13.138,82.509,82.509,0,0,1,12.915,17.052,84.9,84.9,0,0,1,8.274,20.239A86.869,86.869,0,0,1,75.252-84.98a86.869,86.869,0,0,1-2.907,22.587A85.948,85.948,0,0,1,64.071-42.1a84.561,84.561,0,0,1-12.915,17.22A82.365,82.365,0,0,1,34.384-11.573a81.681,81.681,0,0,1-19.9,8.554A81.606,81.606,0,0,1-7.827,0H-72.9V-30.638h13.53V-138.764H-72.9Zm50.653,30.75V-30.638h14.2A36.129,36.129,0,0,0,9.057-34.887,44.682,44.682,0,0,0,23.034-46.46a57.11,57.11,0,0,0,9.393-17.22,63.99,63.99,0,0,0,3.466-21.3,63.157,63.157,0,0,0-3.466-21.133,56.5,56.5,0,0,0-9.393-17.108A43.642,43.642,0,0,0,9.057-134.627a36.912,36.912,0,0,0-17.108-4.137Z" transform="translate(235 253)" fill="#f3f5f7"/><path d="M35.181-112.815q-5.988-8.555-10.8-12.137a31.372,31.372,0,0,0-10.373-5.133,43.2,43.2,0,0,0-11.656-1.551,35.574,35.574,0,0,0-16.682,4.01,42.105,42.105,0,0,0-13.313,10.907,52.893,52.893,0,0,0-8.822,16.04A58.2,58.2,0,0,0-39.672-81.27a59.422,59.422,0,0,0,3.155,19.515A51.965,51.965,0,0,0-27.8-45.768a41.828,41.828,0,0,0,13.26,10.854,36.02,36.02,0,0,0,16.9,4.01,33.834,33.834,0,0,0,11.977-2.085A40.1,40.1,0,0,0,24.434-38.5a41.611,41.611,0,0,0,7.967-7.86,38.645,38.645,0,0,0,5.347-9.25L72.18-45.981a68.413,68.413,0,0,1-9.731,19.408A67.628,67.628,0,0,1,47-11.121,74.565,74.565,0,0,1,26.68-.855,76.8,76.8,0,0,1,2.353,2.887,73.4,73.4,0,0,1-18.713-.107,76.216,76.216,0,0,1-37.48-8.555,77.273,77.273,0,0,1-53.306-21.708,82.7,82.7,0,0,1-65.443-38.763a89.873,89.873,0,0,1-7.806-20.1,89.094,89.094,0,0,1-2.78-22.4,87.14,87.14,0,0,1,6.1-32.668,85.1,85.1,0,0,1,16.682-26.626,78.372,78.372,0,0,1,24.862-17.965,72.584,72.584,0,0,1,30.743-6.576q13.153,0,22.135,3.261t19.783,12.885H68.224v36.144Z" transform="translate(326 346)" fill="#f3f5f7"/></g><g transform="translate(-5 -94)"><path d="M-2916.714-701.107a76.223,76.223,0,0,1-18.767-8.447,77.281,77.281,0,0,1-15.826-13.153,82.69,82.69,0,0,1-12.137-17.056,89.85,89.85,0,0,1-7.806-20.1,89.063,89.063,0,0,1-2.78-22.4,92.5,92.5,0,0,1,1.237-15.258q-.859.262-1.727.508a81.584,81.584,0,0,1-22.308,3.02H-3061.9v-30.638h13.53V-932.765h-13.53v-30.749h65.077a81.584,81.584,0,0,1,22.308,3.019,83.012,83.012,0,0,1,19.9,8.5,82.9,82.9,0,0,1,16.772,13.138,82.53,82.53,0,0,1,12.915,17.052,84.946,84.946,0,0,1,8.275,20.238,86.892,86.892,0,0,1,2.907,22.587,88.874,88.874,0,0,1-1.31,15.358,74.869,74.869,0,0,1,19.41-2.483q13.153,0,22.135,3.261t19.783,12.886h23.953v36.143h-33.043q-5.989-8.555-10.8-12.136a31.357,31.357,0,0,0-10.372-5.133,43.186,43.186,0,0,0-11.656-1.551,35.576,35.576,0,0,0-16.681,4.009,42.118,42.118,0,0,0-13.314,10.907,52.89,52.89,0,0,0-8.822,16.041,58.2,58.2,0,0,0-3.208,19.409,59.411,59.411,0,0,0,3.155,19.515,51.939,51.939,0,0,0,8.715,15.987,41.823,41.823,0,0,0,13.26,10.854,36.026,36.026,0,0,0,16.9,4.01,33.844,33.844,0,0,0,11.976-2.085,40.128,40.128,0,0,0,10.105-5.507,41.62,41.62,0,0,0,7.967-7.86,38.635,38.635,0,0,0,5.347-9.25l34.432,9.625a68.4,68.4,0,0,1-9.731,19.409A67.606,67.606,0,0,1-2851-712.121a74.572,74.572,0,0,1-20.318,10.266,76.8,76.8,0,0,1-24.327,3.742A73.4,73.4,0,0,1-2916.714-701.107Zm-94.538-123.53h14.2a36.129,36.129,0,0,0,17.107-4.249,44.691,44.691,0,0,0,13.978-11.573,57.138,57.138,0,0,0,9.392-17.22,64.006,64.006,0,0,0,3.466-21.3,63.167,63.167,0,0,0-3.466-21.133,56.524,56.524,0,0,0-9.392-17.108,43.643,43.643,0,0,0-13.978-11.406,36.914,36.914,0,0,0-17.107-4.137h-14.2Z" transform="translate(3463 1167)" fill="#fff" stroke="#fff" stroke-width="2"/></g></g></svg>