<svg xmlns="http://www.w3.org/2000/svg" width="158.273" height="24.252" viewBox="0 0 158.273 24.252"><path d="M9.631,8.406v8.579A5.064,5.064,0,0,0,12,14.04l.093.047c-.255,3.061-2.342,6.121-5.588,6.121-3.269,0-5.681-2.434-5.681-6.33,0-2.921,1.9-4.753,4.336-6.4a4.251,4.251,0,0,0-1.09-.139,2.427,2.427,0,0,0-2.643,2.3H1.284a3.407,3.407,0,0,1-.023-.487c0-2.064,1.09-4.568,3.733-4.568,1.693,0,2.991,1.553,4.962,1.553A2.358,2.358,0,0,0,12.111,4.9h.07c-.023,1.507-.487,3.061-2.55,3.5Zm1.252,8.787c-1.159,1.229-2.411,2.272-4.034,2.272-3.014,0-5.332-2.365-5.332-5.8A6.734,6.734,0,0,1,3.278,9.287H3.185a6.208,6.208,0,0,0-2.11,4.521c0,3.8,2.388,6.144,5.518,6.144a5.065,5.065,0,0,0,4.336-2.736l-.047-.023ZM11.81,5.949A3.112,3.112,0,0,1,8.889,7.641c-1.693,0-3.246-1.159-4.614-1.159A2.8,2.8,0,0,0,1.84,7.942l.023.047a2.956,2.956,0,0,1,2.2-.881c1.808,0,2.968,1.113,4.8,1.113a2.815,2.815,0,0,0,2.991-2.249l-.047-.023Zm-6.446,1.6a6.77,6.77,0,0,0-2.272,5.194A5.023,5.023,0,0,0,4.669,16.59l.672-.348V10.029l-.626.324L4.6,10.122,7.845,8.359c-.881-.185-1.669-.579-2.481-.811Zm4.011.9a3.626,3.626,0,0,1-.51.023,4.044,4.044,0,0,1-.927-.093v6.77L4.9,16.8a3.837,3.837,0,0,0,2.365.742,5.119,5.119,0,0,0,2.11-.441V8.452h0ZM6.037,9.635,5.6,9.89V16.1l.441-.232Zm13.332.881v8.022c0,2.226-1.971,3.733-4.173,4.173l-.046-.093a3.071,3.071,0,0,0,1.716-2.782v-8.3L15.613,10.4l-.487.533V17.4l.7.626v.047l-1.878,2.04-2.156-1.971v-.093l.835-.881V6.922L15.08,4.3l.046.023v6.214L17.143,8.36l2.11,1.9.394-.418.186.163-.464.509ZM12.877,18.1v-.046l.487-.487V6.528l-.487.51V17.333l-.742.742v.046l1.808,1.623.324-.371L12.877,18.1Zm4.73-6.933L16.1,9.867l-.324.348,1.345,1.206v8.347a2.963,2.963,0,0,1-.324,1.461l.023.023a2.094,2.094,0,0,0,.788-1.855V11.165h0Zm5.449,4.011v1.182L25.3,18.121l1.3-1.391.186.185-3.014,3.223L20.713,17.68l-.464.487-.186-.185.533-.556V11.559l4.382-3.2,2.3,3.71Zm-1.716,2.041V11.327l-.487.348v5.773l2.875,2.342L24.1,19.4ZM23.1,10.075l-.047.023v4.753l2.064-1.507Zm.6-.464-.417.3,2.041,3.269.417-.3L23.7,9.612Zm18.684,10.5-3.223-2.782-2.458,2.782-3.339-2.875V12.7H32.72a1.03,1.03,0,0,0-1.02.811h-.07a3.684,3.684,0,0,1-.116-.881,1.91,1.91,0,0,1,1.855-2.179V6.458c0-.765-.9-1.067-.9-2.087,0-1.321,1.252-2.62,3.547-3.432l.093.07A2.031,2.031,0,0,0,34.83,2.957c0,1.53,1.484,1.136,1.484,3.547v.927L39.026,4.58l2.852,2.805,2.69-2.805,2.6,2.55v8.579l-4.776,4.405Zm-8.277-3.246V11.977h-1.3a.946.946,0,0,0-1.02.835l.023.023a1.15,1.15,0,0,1,1-.394h.811v4.683l3.061,2.643.348-.418-2.921-2.481Zm0-10.642c0-.95-.835-1.275-.835-1.878a3.446,3.446,0,0,1,.835-2.179l-.046-.023A3.14,3.14,0,0,0,32.72,4.372c0,.835.9,1.229.9,1.971v4.1h.487V6.226ZM39,8.545,37.241,6.829l-.927.95v8.208l2.11,1.785.58-.649Zm.742,8.277v-8.6L37.774,6.273l-.371.371,1.855,1.785v8.648l3.13,2.713.371-.348Zm4.5-8.579L42.782,6.852l-.835.858v8.254l2.272,1.994.023-.023V8.244Zm.742-.324L43.292,6.273l-.348.371L44.5,8.128v9.691l.487-.464Zm9.852,12.2-2.2-1.994-1.971,1.994-2.411-2.133-.325.348-.185-.185.417-.441V11.49l4.359-3.153,2.5,1.948.441-.464.186.186-.51.533v6.423L56.367,18.1l.394-.417.185.162-2.11,2.272ZM48.9,17.541v-6.26l-.487.348v6.144l2.226,1.994.371-.371L48.9,17.541Zm3.733-6.1-1.9-1.484-.07.047v6.747l1.577,1.368.394-.394V11.443Zm.742,6.306V11.1L51.405,9.5l-.464.324,1.947,1.53v6.631l1.948,1.762.348-.371L53.376,17.75Zm8.208-5.194h2.388v4.962l-3.687,2.6a2.676,2.676,0,0,0-2.04-.95,2.9,2.9,0,0,0-1.994.858l-.116-.047,3.153-4.591H57.341V11.072l3.872-2.689a2.039,2.039,0,0,0,1.414.579,2.633,2.633,0,0,0,1.646-.51l.093.046Zm-2.6,5.935a2.828,2.828,0,0,0-1.67.556v.047a2.631,2.631,0,0,1,3.014.7l.533-.394a2.306,2.306,0,0,0-1.878-.9Zm2.481-3.9h-1.3l-2.713,3.919.023.046a3.525,3.525,0,0,1,2.11-.811,2.411,2.411,0,0,1,1.855.881l.023-.023Zm-3.385,0V10.864l-.487.348v3.9h1.878l.371-.51H58.083Zm4.846-4.544a2.195,2.195,0,0,1-1.577.533,2.067,2.067,0,0,1-1.461-.673l-.046.023v3.385h.881l2.226-3.246Zm-1.113-.209a1.68,1.68,0,0,1-1.3-.672l-.58.394a1.776,1.776,0,0,0,1.507.765,2.5,2.5,0,0,0,1.646-.65l.023-.069A3.556,3.556,0,0,1,61.816,9.843Zm.394,3.988H60.7l-.348.487h1.368v4.5l.487-.348V13.832Zm9.761-3.316v8.022c0,2.226-1.971,3.733-4.173,4.173l-.046-.093a3.071,3.071,0,0,0,1.716-2.782v-8.3L68.215,10.4l-.487.533V17.4l.7.626v.047l-1.878,2.04L64.39,18.144v-.093l.835-.881V6.922L67.682,4.3l.046.023v6.214L69.745,8.36l2.11,1.9.394-.418.186.163-.464.509ZM65.479,18.1v-.046l.487-.487V6.528l-.487.51V17.332l-.742.742v.046l1.808,1.623.324-.371L65.479,18.1Zm4.73-6.933L68.7,9.867l-.324.348,1.345,1.206v8.347a2.963,2.963,0,0,1-.324,1.461l.023.023a2.094,2.094,0,0,0,.788-1.855V11.165h0Zm5.982,8.95L74.2,18.283l-.464.487-.186-.186L74.08,18V11.3l-.974-.927-.371.418-.186-.186,2.087-2.272,1.855,1.67.464-.51.209.162-.58.626v6.77L77.7,18.1l.51-.533.185.186-2.2,2.364Zm-1.368-2.272V10.933L73.617,9.82l-.324.371,1.043,1v6.886l1.855,1.669.348-.371Zm.7-9.691-1.9-1.739,1.739-1.855,1.9,1.739Zm-1.182-2.11-.348.348L75.495,7.8l.348-.394ZM85.994,20.115l-2.017-1.832v-6.77L82.748,10.4l-.649.7v6.26l.719.672v.093l-1.9,1.994L78.76,18.144v-.07l.835-.881V11.351l-1.09-1-.441.487-.185-.185,2.11-2.3,2.11,1.878V10.7L84.3,8.36l2.063,1.855.464-.487.209.185-.556.58v6.631l1.043.974.51-.556.185.185-2.225,2.388ZM79.873,18.1v-.046a4.387,4.387,0,0,0,.464-.464V11L79.015,9.8l-.325.348,1.159,1.067v6.121l-.719.742v.046l1.785,1.623.371-.394L79.873,18.1Zm4.846-.185V11.119l-1.437-1.3-.371.394L84.232,11.4v6.747l1.739,1.623.371-.394-1.623-1.46Zm7.814,6.376c-.765-.835-1.3-1.182-2.017-1.182a5.648,5.648,0,0,0-2.55.788l-.07-.069,3.2-3.71-2.272-1.808-.441.464-.185-.162.51-.556V11.49l4.405-3.153,2.458,1.948.418-.464.185.186-.487.533v7.93c0,1.206.672,1.159.672,2.063,0,1.043-1.507,2.017-3.826,3.756Zm-3.084-6.422V11.3l-.487.348v6.422l2.3,1.855.348-.418ZM91.072,22.5a3.679,3.679,0,0,0-2.11.672v.047a4.04,4.04,0,0,1,1.669-.371,2.57,2.57,0,0,1,1.924,1.09l.464-.371A2.7,2.7,0,0,0,91.072,22.5ZM93.9,20.277c-.579-.371-.719-.765-.719-1.762V18.1l-3.849,4.452.023.023a4.455,4.455,0,0,1,2.5-.765,3.319,3.319,0,0,1,2.272.974,1.665,1.665,0,0,0,.742-1.321C94.874,21,94.48,20.648,93.9,20.277Zm-.719-8.834L91.257,9.937l-.047.046V17.1l1.484,1.159.487-.556ZM94.6,19.953c-.6-.464-.673-.858-.673-1.855V11.049L91.976,9.473l-.44.3,1.9,1.507v7.141c0,1,.047,1.276.673,1.692.556.371,1,.765,1,1.3,0,.139-.023.371-.023.371l.023.023a.816.816,0,0,0,.255-.6,1.53,1.53,0,0,0-.765-1.252Zm5.565.162-2.133-1.669-.441.487-.185-.186.51-.556V10.075H96.567l-.047-.046.812-1.206h.579V7.27l2.458-2.62.046.047V8.823h1.855l.047.047-.812,1.206h-1.09V17.1l1.276.974.487-.533.185.185ZM98.654,6.876l-.487.533V8.823h.487Zm0,11.083V10.075h-.487v8.161l1.971,1.53.348-.371Zm11.291-7.211V17.24l-3.918,2.9-2.945-2.226-.348.394-.185-.186.417-.464V11.3l4.1-2.945,2.736,2.133.44-.464.186.185-.487.533Zm-6.237,6.677V11.1l-.487.348V17.68L106,19.813l.441-.324Zm3.733-5.912-1.948-1.53-.023.023v6.909l1.971,1.484V11.513Zm.742-.417-2.156-1.67-.44.324,2.11,1.623v7.211l.487-.371V11.1ZM118.8,20.115l-2.017-1.832v-6.77L115.556,10.4l-.649.7v6.26l.719.672v.093l-1.9,1.994-2.156-1.971v-.07l.835-.881V11.351l-1.09-1-.441.487-.185-.185,2.11-2.3,2.11,1.878V10.7l2.2-2.342,2.064,1.855.464-.487.209.185-.556.58v6.631l1.043.974.51-.556.185.185ZM112.681,18.1v-.046a4.387,4.387,0,0,0,.464-.464V11L111.823,9.8l-.324.348,1.159,1.067v6.121l-.719.742v.046l1.785,1.623.371-.394L112.681,18.1Zm4.846-.185V11.119l-1.437-1.3-.371.394L117.04,11.4v6.747l1.739,1.623.371-.394Zm15.6,2.2a2.933,2.933,0,0,0-1.646-1.136v4.544l-.047.023-.927-.835-2.69,2.481-.047-.023V18.932a5.108,5.108,0,0,0-2.5,1.437l-.046-.023a3.9,3.9,0,0,1,2.55-3.617V12.208h-.487a1.452,1.452,0,0,0-1.368.974h-.07a3.52,3.52,0,0,1-.116-1.066,1.941,1.941,0,0,1,1.9-1.994h.139v-2.5l-.95-.858-.464.464-.162-.162,2.342-2.481,2.179,1.994v2.11l.51-.556V5.461h.255V7.9l3.084-3.316,2.62,2.388V17.054Zm-5.356-2.04a3,3,0,0,0-2.063,1.53l.023.047a4.436,4.436,0,0,1,2.04-1Zm.742-6.654h-1.275a1.143,1.143,0,0,0-1.252,1.206l.023.023a1.28,1.28,0,0,1,1.113-.7h.9V24.59l.487-.464V11.42Zm0-4.174-1.159-1.066-.371.394,1.044.927v2.62h.487Zm2.713,1.321-.51.533V22.526l.51.464V8.568Zm3.037-.533-1.368-1.252-1.414,1.53v8.161a3.91,3.91,0,0,1,2.759,1.252l.023-.023Zm-2.782,10.039v.6a2.632,2.632,0,0,1,1.669,1.066l.533-.417A3,3,0,0,0,131.479,18.074ZM135,7.664,133.427,6.2l-.371.394,1.461,1.345V18.724l.487-.371V7.664Zm10.271,3.084V17.24l-3.919,2.9-2.944-2.226-.348.394-.185-.186.417-.464V11.3l4.1-2.945,2.736,2.133.44-.464.186.185-.487.533Zm-6.237,6.677V11.1l-.487.348V17.68l2.782,2.133.441-.324-2.736-2.064Zm3.733-5.912-1.947-1.53-.023.023v6.909L142.77,18.4Zm.742-.417-2.156-1.67-.44.324,2.11,1.623v7.211l.487-.371V11.1Zm7.141,1.461h2.388v4.962l-3.687,2.6a2.676,2.676,0,0,0-2.04-.95,2.9,2.9,0,0,0-1.994.858l-.116-.047,3.153-4.591H146.41V11.072l3.872-2.689a2.04,2.04,0,0,0,1.414.579,2.634,2.634,0,0,0,1.646-.51l.093.046-2.783,4.058Zm-2.6,5.935a2.827,2.827,0,0,0-1.669.556v.047a2.63,2.63,0,0,1,3.014.7l.533-.394A2.3,2.3,0,0,0,148.057,18.492Zm2.481-3.9h-1.3l-2.712,3.919.023.046a3.525,3.525,0,0,1,2.11-.811,2.411,2.411,0,0,1,1.855.881l.023-.023V14.6h0Zm-3.385,0V10.864l-.487.348v3.9h1.878l.371-.51h-1.762ZM152,10.052a2.2,2.2,0,0,1-1.577.533,2.067,2.067,0,0,1-1.461-.673l-.047.023v3.385h.881l2.226-3.246L152,10.052Zm-1.113-.209a1.679,1.679,0,0,1-1.3-.672l-.58.394a1.776,1.776,0,0,0,1.507.765,2.5,2.5,0,0,0,1.646-.65l.023-.069A3.56,3.56,0,0,1,150.885,9.843Zm.394,3.988h-1.507l-.348.487h1.368v4.5l.487-.348Zm5.611,6.283-2.133-1.669-.441.487-.185-.186.51-.556V10.075H153.3l-.046-.046.811-1.206h.579V7.27L157.1,4.65l.047.047V8.823H159l.047.047-.812,1.206h-1.09V17.1l1.275.974.487-.533.185.185ZM155.383,6.876l-.487.533V8.823h.487Zm0,11.083V10.075H154.9v8.161l1.971,1.53.348-.371Z" transform="translate(-0.82 -0.94)" fill="#313652"/></svg>